<?xml version="1.0" encoding="UTF-8"?>
<svg id="Layer_2" data-name="Layer 2" xmlns="http://www.w3.org/2000/svg" viewBox="0 0 1623.23 405.7">
  <defs>
    <style>
      .cls-1 {
        fill: #121212;
      }
    </style>
  </defs>
  <g id="Layer_1-2" data-name="Layer 1">
    <g>
      <g>
        <path class="cls-1" d="M135.25,314.07c-1.2,0-2.45-.02-3.7-.02,1.99.07,3.99.09,6.02.09,6.22,0,12.2-.28,17.94-.83-6.27.5-12.99.77-20.26.77Z"/>
        <path class="cls-1" d="M470.99,274.27c-2.94,3.22-6.07,5.85-9.42,7.89-3.37,2.04-7.1,3.07-11.17,3.07-4.69,0-8.04-1.31-10.08-3.94-2.06-2.63-3.07-8.48-3.07-17.53v-64.47c-12.09,3.42-24.67,7.01-36.36,10.36v59.39c-6.92,5.74-14,10.25-21.25,13.56-8.32,3.79-16.3,5.7-23.88,5.7-9.35,0-16.96-3.22-22.78-9.64-5.85-6.42-8.76-15.05-8.76-25.85,0-7.65,1.64-14.33,4.95-20-12.86,5.7-28.32,12.92-43.02,24.26-.33,2.63-.48,3.39-.48,6.26,0,14.02,4.45,25.7,13.36,35.05,8.89,9.35,21.82,14.02,38.77,14.02,9.33,0,17.59-1.25,24.75-3.72,7.14-2.48,13.87-6.07,20.15-10.73,6.27-4.67,12.77-9.92,19.5-15.77h1.95c1.47,8.7,3.53,15.55,6.16,20.59,3.07,5.85,9.7,8.76,19.93,8.76,11.08,0,19.93-2.41,26.51-7.23s13.49-12.49,20.81-23l-6.57-7.01Z"/>
        <path class="cls-1" d="M605.05,269.89c-5.56,6.13-10.3,10.67-14.24,13.58-3.97,2.91-9.44,4.38-16.43,4.38-8.48,0-14.11-3.07-16.87-9.2-2.78-6.13-4.16-16.93-4.16-32.42v-80.99c-12.29,3.9-24.8,7.82-36.36,11.35v81.91c0,19.56,3.35,33.67,10.08,42.28,6.7,8.61,17.37,12.92,31.98,12.92,9.33,0,16.93-1.47,22.78-4.38,5.83-2.91,11.17-7.08,15.97-12.49,4.84-5.41,10.01-12.05,15.58-19.93l-8.32-7.01Z"/>
        <path class="cls-1" d="M911.5,202.41c-4.82-9.35-11.24-17.53-19.28-24.54-8.04-7.01-16.93-13.3-26.73-18.84-9.79-5.54-19.5-11.11-29.14-16.65-10.8-6.42-21.18-12.71-31.11-18.84-9.92-6.13-17.96-13.08-24.1-20.81-6.13-7.73-9.2-17.02-9.2-27.82,0-13.74,4.1-24.03,12.27-30.89,8.17-6.86,19.72-10.3,34.61-10.3,22.19-.28,38.4,5.41,48.63,17.09,10.23,11.68,18.4,29.64,24.54,53.89h13.14l-3.07-87.63h-11.39c-1.16,4.67-2.85,7.95-5.04,9.86s-5.04,2.85-8.54,2.85-7.38-1.16-11.61-3.5-10.01-4.6-17.31-6.79c-7.29-2.19-17.68-3.29-31.11-3.29-15.18,0-29.07,2.78-41.62,8.32-12.55,5.54-22.63,13.52-30.23,23.88-7.6,10.36-11.39,23.29-11.39,38.77s3.44,28.04,10.3,38.56,15.71,19.56,26.51,27.16c10.8,7.6,22.06,14.74,33.74,21.47,11.98,6.73,23.51,13.36,34.61,19.93,11.11,6.57,20.22,14.09,27.38,22.56,7.16,8.48,10.73,19.12,10.73,31.98,0,11.11-2.19,20.09-6.57,26.94-4.38,6.86-10.51,11.83-18.4,14.9-7.89,3.07-17.37,4.6-28.48,4.6-14.9,0-27.54-1.97-37.9-5.91-10.36-3.94-19.06-11.24-26.07-21.91-7.01-10.67-13.14-26.07-18.4-46.22h-13.58l3.94,94.64h13.58c.28-4.38,1.6-7.89,3.94-10.51,2.34-2.63,4.97-3.94,7.89-3.94,3.5,0,7.95,1.1,13.36,3.29,5.41,2.19,12.86,4.38,22.34,6.57s21.84,3.29,37.02,3.29c16.93,0,32.14-3,45.57-8.98,13.43-5.98,24.03-14.83,31.76-26.51,7.73-11.68,11.61-26,11.61-42.94,0-13.14-2.41-24.38-7.23-33.74Z"/>
        <path class="cls-1" d="M1021.25,293.98c-4.69-1.75-7.6-4.82-8.76-9.2-1.18-4.38-1.75-10.36-1.75-17.96V0h-11.83l-58.71,15.33v12.27c4.95-.59,9.2-.88,12.71-.88,5.83,0,10.87,1.03,15.12,3.07,4.23,2.04,6.35,6.86,6.35,14.46v224.32c0,12.27-2.28,20-6.79,23.22-4.53,3.22-12.49,4.82-23.88,4.82v12.71h99.45v-12.71c-9.95,0-17.24-.88-21.91-2.63ZM1147.65,289.6c-3.94-4.67-5.91-12.86-5.91-24.53v-87.19c0-9.05-.74-18.34-2.19-27.82-1.47-9.49-4.25-18.25-8.32-26.29-4.1-8.04-10.01-14.52-17.74-19.5-7.75-4.97-17.9-7.45-30.45-7.45-11.7,0-23,2.78-33.95,8.32-10.95,5.54-23.31,14.74-37.02,27.6h-6.13l-.44,24.1c1.77-1.75,3.53-3.42,5.26-4.99,9.86-9.07,18.77-15.66,26.73-19.76,9.33-4.82,18.53-7.23,27.6-7.23,11.96,0,20.81,3,26.51,8.98,5.7,5.98,9.42,14.02,11.17,24.1s2.63,21.1,2.63,33.08v75.8c0,7.01-.59,12.71-1.75,17.09-1.18,4.38-3.94,7.6-8.32,9.64s-11.7,3.07-21.91,3.07v12.71h100.77v-12.71c-13.74,0-22.56-2.34-26.51-7.01Z"/>
        <path class="cls-1" d="M1364.96,124.87c-17.39-18.69-41.12-28.04-71.2-28.04-19.58,0-36.74,4.45-51.48,13.36-14.76,8.92-26.22,21.31-34.39,37.24-8.19,15.93-12.27,34.55-12.27,55.86,0,35.33,8.67,62.59,26.07,81.71,17.37,19.12,41.4,28.7,72.07,28.7,18.97,0,35.77-4.25,50.38-12.71,14.59-8.48,26.07-21.03,34.39-37.68,8.32-16.65,12.49-37.24,12.49-61.78,0-32.42-8.7-57.99-26.07-76.67ZM1344.37,259.37c-4.25,13.43-10.45,22.94-18.62,28.48-8.19,5.54-18.27,8.32-30.23,8.32-18.71.28-33.23-7.38-43.59-23-10.38-15.62-15.55-40.81-15.55-75.58,0-28.04,5.1-49.07,15.33-63.09,10.21-14.02,23.66-21.03,40.31-21.03,19.56,0,34.24,8.32,44.03,24.97,9.77,16.65,14.68,38.4,14.68,65.28,0,23.66-2.12,42.21-6.35,55.64Z"/>
        <path class="cls-1" d="M1613.82,143.92c-6.29-14.74-14.9-26.29-25.85-34.61-10.95-8.32-23.75-12.49-38.34-12.49-12.86,0-24.75,3.29-35.71,9.86-10.95,6.57-21.69,15.99-32.2,28.26h-1.31v-36.8h-10.95l-55.2,12.27v12.71c6.42-.59,11.08-.88,14.02-.88,7.29,0,11.9,1.6,13.8,4.82,1.88,3.22,2.85,9.05,2.85,17.53v216.87c0,12.27-1.91,20.66-5.7,25.19-3.81,4.51-12.57,6.79-26.29,6.79v12.27h110.85v-12.71c-11.39,0-20.15-.88-26.29-2.63-6.13-1.75-10.38-5.13-12.71-10.08-2.34-4.97-3.51-12.14-3.51-21.47v-57.39h1.75c6.42,4.38,13.36,7.51,20.81,9.42,7.45,1.88,15.25,2.85,23.44,2.85,17.53,0,33.58-4.75,48.19-14.24,14.59-9.49,26.2-23.07,34.83-40.75,8.61-17.68,12.92-38.93,12.92-63.75,0-19.28-3.15-36.3-9.42-51.04ZM1568.03,274.7c-10.23,14.61-23.09,21.91-38.56,21.91-8.19,0-15.33-1.75-21.47-5.26-6.13-3.51-11.39-7.6-15.77-12.27s-8.04-8.48-10.95-11.39v-114.35c4.07-5.54,10.58-11.39,19.5-17.53,8.89-6.13,19.19-9.2,30.89-9.2,16.34,0,29.05,6.51,38.12,19.5,9.05,12.99,13.58,33.36,13.58,61.12,0,30.38-5.13,52.86-15.33,67.47Z"/>
      </g>
      <path class="cls-1" d="M155.51,313.3c-5.74.55-11.72.83-17.94.83-2.04,0-4.03-.02-6.02-.09,1.25,0,2.5.02,3.7.02,7.27,0,14-.26,20.26-.77Z"/>
      <path class="cls-1" d="M255.91,237.2c-14.06,8.2-39.56,28.11-52.93,35.23-14.94,7.96-32.55,14.11-52.7,14.11s-38.56-4.38-54.33-13.14c-15.77-8.76-28.13-22.34-37.02-40.75-8.92-18.4-13.36-42.21-13.36-71.41,0-39.15,8.54-69.95,25.63-92.44,17.09-22.5,41.4-33.74,72.95-33.74,22.48,0,41.25,6.42,56.3,19.28,15.03,12.86,24.89,33.58,29.57,62.21h14.9V16.21h-13.14c-2.63,4.38-4.91,8.11-6.79,11.17-1.91,3.07-4.6,4.6-8.11,4.6s-8.04-1.31-13.58-3.94c-5.56-2.63-13.01-5.26-22.34-7.89-9.35-2.63-21.77-3.94-37.24-3.94-28.04,0-52.88,5.85-74.48,17.53-21.62,11.68-38.56,28.63-50.82,50.82C6.13,106.75,0,133.78,0,165.61c0,28.32,5.17,53.74,15.55,76.23,10.36,22.5,25.76,40.15,46.22,53.01,19.04,11.98,42.26,18.36,69.66,19.19h.11c1.25,0,2.5.02,3.7.02,7.27,0,14-.26,20.26-.77h.11c44.05-3.61,65.57-19.78,103.07-48,2.69-2.02,5.48-4.12,8.37-6.27,6.53-4.89,13.78-9.62,21.29-14.06,20.55-12.2,42.85-22.28,56.28-27.34,2.58-.96,4.84-1.75,6.68-2.32,4.91-1.53,25.39-7.49,49.57-14.44,11.7-3.35,24.27-6.94,36.36-10.36v-26.22c0-22.78-4.97-39.72-14.9-50.82-9.95-11.11-26.88-16.65-50.82-16.65-15.77,0-29.44,2.34-40.96,7.01-11.54,4.67-20.46,10.67-26.73,17.96-6.29,7.29-9.42,15.05-9.42,23.22,0,7.29,1.97,12.64,5.91,15.99,3.94,3.35,8.11,5.04,12.49,5.04,6.13,0,10.87-1.69,14.24-5.04,3.35-3.35,5.04-8.39,5.04-15.12,0-13.14,1.75-22.34,5.26-27.6,3.51-5.26,11.52-7.89,24.1-7.89s23,4.01,29.57,12.05c6.57,8.04,9.86,21.53,9.86,40.53v19.28c-7.6,2.34-16.33,4.97-26.29,7.45-57.71,14.37-90.58,31.1-118.69,47.49Z"/>
      <path class="cls-1" d="M640.63,100.68c-1.29,17.11-9.9,30.89-31.3,37.79l-6.81,2.21c-13.69,4.43-31.22,10.1-49.16,15.79-12.29,3.9-24.8,7.82-36.36,11.35-12.16,3.7-23.31,6.99-32.14,9.38-11.39,3.09-28.92,8-47.6,13.32v-18.31c16.96-4.78,32.57-9.09,43.02-11.92,9.88-2.67,22.74-6.51,36.71-10.8v-26.81h-24.1v-10.08c10.21-6.42,19.06-15.12,26.51-26.07,7.45-10.95,15.12-25.78,23-44.47h10.95v96.04c16.01-5.1,31.44-10.1,43.77-14.09l6.81-2.21c12.51-4.05,17.2-10.54,18.73-18.53.02-.07.02-.15.04-.24.04-.22.07-.46.11-.68.55-5.7-6.16-8.7-15.05-8.7-10.71,0-19.41-8.7-19.41-19.41s8.7-19.43,19.41-19.43c2.74,0,5.35.57,7.69,1.6l.07-.13c14.33,7.16,21.97,18.66,24.4,31.24.81,4.32,1.03,8.74.7,13.17Z"/>
    </g>
  </g>
</svg>